<svg width="38" height="14" viewBox="0 0 38 14" fill="none" xmlns="http://www.w3.org/2000/svg">
<path d="M10.0103 11.4146C9.60075 12.0011 9.02799 12.4411 8.29199 12.7344C7.56152 13.0221 6.70931 13.166 5.73535 13.166C4.75033 13.166 3.87598 12.9364 3.1123 12.4771C2.34863 12.0122 1.75651 11.3537 1.33594 10.5015C0.920898 9.64925 0.707845 8.66146 0.696777 7.53809V6.48389C0.696777 4.66325 1.12012 3.25212 1.9668 2.25049C2.81901 1.24886 4.01432 0.748047 5.55273 0.748047C6.81445 0.748047 7.82992 1.07178 8.59912 1.71924C9.36833 2.36117 9.8387 3.27425 10.0103 4.4585H8.4165C8.11768 2.85921 7.16585 2.05957 5.56104 2.05957C4.493 2.05957 3.68229 2.43587 3.12891 3.18848C2.58105 3.93555 2.30436 5.02018 2.29883 6.44238V7.43018C2.29883 8.78597 2.60872 9.86507 3.22852 10.6675C3.84831 11.4644 4.68669 11.8628 5.74365 11.8628C6.34131 11.8628 6.86426 11.7964 7.3125 11.6636C7.76074 11.5308 8.13151 11.3066 8.4248 10.9912V8.27686H5.62744V6.98193H10.0103V11.4146ZM14.2686 8.26855V13H12.6748V0.914062H17.1323C18.4549 0.914062 19.4897 1.25163 20.2368 1.92676C20.9894 2.60189 21.3657 3.49561 21.3657 4.60791C21.3657 5.78109 20.9977 6.68587 20.2617 7.32227C19.5312 7.95312 18.4826 8.26855 17.1157 8.26855H14.2686ZM14.2686 6.96533H17.1323C17.9845 6.96533 18.6375 6.76611 19.0913 6.36768C19.5451 5.9637 19.772 5.38265 19.772 4.62451C19.772 3.90511 19.5451 3.32959 19.0913 2.89795C18.6375 2.46631 18.015 2.24219 17.2236 2.22559H14.2686V6.96533ZM25.1094 13H23.5156V0.914062H25.1094V13ZM37.3281 7.34717C37.3281 8.53141 37.1289 9.56624 36.7305 10.4517C36.332 11.3315 35.7676 12.0039 35.0371 12.4688C34.3066 12.9336 33.4544 13.166 32.4805 13.166C31.5286 13.166 30.6847 12.9336 29.9487 12.4688C29.2127 11.9984 28.64 11.3315 28.2305 10.4683C27.8265 9.59945 27.619 8.59505 27.6079 7.45508V6.5835C27.6079 5.42139 27.8099 4.39486 28.2139 3.50391C28.6178 2.61296 29.1878 1.93229 29.9238 1.46191C30.6654 0.986003 31.512 0.748047 32.4639 0.748047C33.4323 0.748047 34.2845 0.983236 35.0205 1.45361C35.762 1.91846 36.332 2.59635 36.7305 3.4873C37.1289 4.37272 37.3281 5.40479 37.3281 6.5835V7.34717ZM35.7427 6.56689C35.7427 5.13363 35.4549 4.03516 34.8794 3.27148C34.3039 2.50228 33.4987 2.11768 32.4639 2.11768C31.4567 2.11768 30.6626 2.50228 30.0815 3.27148C29.506 4.03516 29.21 5.09766 29.1934 6.45898V7.34717C29.1934 8.73617 29.4839 9.8291 30.0649 10.626C30.6515 11.4173 31.4567 11.813 32.4805 11.813C33.5098 11.813 34.3066 11.4395 34.8711 10.6924C35.4355 9.93978 35.7261 8.86344 35.7427 7.46338V6.56689Z" fill="black"/>
</svg>
