<svg width="38" height="18" viewBox="0 0 38 18" fill="none" xmlns="http://www.w3.org/2000/svg">
<path d="M11.0029 12.228C10.5452 12.8836 9.90511 13.3753 9.08252 13.7031C8.26611 14.0247 7.31364 14.1855 6.2251 14.1855C5.12419 14.1855 4.14697 13.9289 3.29346 13.4155C2.43994 12.896 1.77816 12.16 1.30811 11.2075C0.844238 10.255 0.60612 9.15104 0.59375 7.89551V6.71729C0.59375 4.68245 1.06689 3.10531 2.01318 1.98584C2.96566 0.866374 4.3016 0.306641 6.021 0.306641C7.43115 0.306641 8.56608 0.668457 9.42578 1.39209C10.2855 2.10954 10.8112 3.13005 11.0029 4.45361H9.22168C8.8877 2.66618 7.82389 1.77246 6.03027 1.77246C4.83659 1.77246 3.9305 2.19303 3.31201 3.03418C2.69971 3.86914 2.39046 5.08138 2.38428 6.6709V7.7749C2.38428 9.2902 2.73063 10.4963 3.42334 11.3931C4.11605 12.2837 5.05306 12.729 6.23438 12.729C6.90234 12.729 7.48682 12.6548 7.98779 12.5063C8.48877 12.3579 8.90316 12.1074 9.23096 11.7549V8.72119H6.10449V7.27393H11.0029V12.228ZM22.1914 9.09229C22.1914 10.62 21.842 11.8507 21.1431 12.7847C20.4442 13.7186 19.4979 14.1855 18.3042 14.1855C17.0858 14.1855 16.1271 13.799 15.4282 13.0259V17.8594H13.7119V3.96191H15.2798L15.3633 5.0752C16.0622 4.20931 17.0332 3.77637 18.2764 3.77637C19.4824 3.77637 20.4349 4.23096 21.1338 5.14014C21.8389 6.04932 22.1914 7.31413 22.1914 8.93457V9.09229ZM20.4751 8.89746C20.4751 7.76562 20.2339 6.87191 19.7515 6.21631C19.269 5.56071 18.6073 5.23291 17.7661 5.23291C16.7271 5.23291 15.9478 5.69368 15.4282 6.61523V11.4116C15.9416 12.327 16.7271 12.7847 17.7847 12.7847C18.6073 12.7847 19.2598 12.46 19.7422 11.8105C20.2308 11.1549 20.4751 10.1839 20.4751 8.89746ZM26.2456 14H24.5293V3.96191H26.2456V14ZM24.3901 1.29932C24.3901 1.021 24.4736 0.78597 24.6406 0.594238C24.8138 0.402507 25.0674 0.306641 25.4014 0.306641C25.7354 0.306641 25.9889 0.402507 26.1621 0.594238C26.3353 0.78597 26.4219 1.021 26.4219 1.29932C26.4219 1.57764 26.3353 1.80957 26.1621 1.99512C25.9889 2.18066 25.7354 2.27344 25.4014 2.27344C25.0674 2.27344 24.8138 2.18066 24.6406 1.99512C24.4736 1.80957 24.3901 1.57764 24.3901 1.29932ZM28.5464 8.88818C28.5464 7.90479 28.7381 7.02035 29.1216 6.23486C29.5112 5.44938 30.0493 4.84326 30.7358 4.4165C31.4285 3.98975 32.2171 3.77637 33.1016 3.77637C34.4684 3.77637 35.5724 4.24951 36.4136 5.1958C37.2609 6.14209 37.6846 7.40072 37.6846 8.97168V9.09229C37.6846 10.0695 37.4959 10.9478 37.1187 11.7271C36.7476 12.5002 36.2126 13.1032 35.5137 13.5361C34.821 13.9691 34.0231 14.1855 33.1201 14.1855C31.7594 14.1855 30.6554 13.7124 29.8081 12.7661C28.967 11.8198 28.5464 10.5674 28.5464 9.00879V8.88818ZM30.272 9.09229C30.272 10.2056 30.5286 11.0993 31.042 11.7734C31.5615 12.4476 32.2542 12.7847 33.1201 12.7847C33.9922 12.7847 34.6849 12.4445 35.1982 11.7642C35.7116 11.0776 35.9683 10.119 35.9683 8.88818C35.9683 7.78727 35.7054 6.89665 35.1797 6.21631C34.6602 5.52979 33.9674 5.18652 33.1016 5.18652C32.2542 5.18652 31.5708 5.5236 31.0513 6.19775C30.5317 6.87191 30.272 7.83675 30.272 9.09229Z" fill="black"/>
</svg>
