<svg width="40" height="34" viewBox="0 0 40 34" fill="none" xmlns="http://www.w3.org/2000/svg">
<path d="M11.7617 7.979C10.234 7.53988 9.12077 7.00179 8.42188 6.36475C7.72917 5.72152 7.38281 4.92985 7.38281 3.98975C7.38281 2.92594 7.80648 2.04769 8.65381 1.35498C9.50732 0.656087 10.6144 0.306641 11.9751 0.306641C12.9028 0.306641 13.7285 0.486003 14.4521 0.844727C15.182 1.20345 15.7448 1.69824 16.1406 2.3291C16.5426 2.95996 16.7437 3.64958 16.7437 4.39795H14.9531C14.9531 3.58154 14.6934 2.94141 14.1738 2.47754C13.6543 2.00749 12.9214 1.77246 11.9751 1.77246C11.0968 1.77246 10.4103 1.96729 9.91553 2.35693C9.42692 2.7404 9.18262 3.27539 9.18262 3.96191C9.18262 4.51237 9.41455 4.97933 9.87842 5.36279C10.3485 5.74007 11.1432 6.08643 12.2627 6.40186C13.3883 6.71729 14.2666 7.06673 14.8975 7.4502C15.5345 7.82747 16.0046 8.26969 16.3076 8.77686C16.6169 9.28402 16.7715 9.88086 16.7715 10.5674C16.7715 11.6621 16.3447 12.5404 15.4912 13.2021C14.6377 13.8577 13.4966 14.1855 12.0679 14.1855C11.1401 14.1855 10.2743 14.0093 9.47021 13.6567C8.66618 13.298 8.0446 12.8094 7.60547 12.1909C7.17253 11.5724 6.95605 10.8704 6.95605 10.085H8.74658C8.74658 10.9014 9.04655 11.5477 9.64648 12.0239C10.2526 12.494 11.0597 12.729 12.0679 12.729C13.008 12.729 13.7285 12.5373 14.2295 12.1538C14.7305 11.7703 14.981 11.2477 14.981 10.5859C14.981 9.92415 14.749 9.4139 14.2852 9.05518C13.8213 8.69027 12.9801 8.33154 11.7617 7.979ZM22.9595 14.1855C21.5988 14.1855 20.4917 13.7402 19.6382 12.8496C18.7847 11.9528 18.3579 10.756 18.3579 9.25928V8.94385C18.3579 7.94808 18.5465 7.06055 18.9238 6.28125C19.3073 5.49577 19.8392 4.88346 20.5195 4.44434C21.2061 3.99902 21.9482 3.77637 22.7461 3.77637C24.0511 3.77637 25.0654 4.20622 25.7891 5.06592C26.5127 5.92562 26.8745 7.15641 26.8745 8.7583V9.47266H20.0742C20.099 10.4622 20.3866 11.2632 20.937 11.8755C21.4937 12.4816 22.1987 12.7847 23.0522 12.7847C23.6584 12.7847 24.1717 12.661 24.5923 12.4136C25.0129 12.1662 25.3809 11.8384 25.6963 11.4302L26.7446 12.2466C25.9035 13.5392 24.6418 14.1855 22.9595 14.1855ZM22.7461 5.18652C22.0534 5.18652 21.472 5.4401 21.002 5.94727C20.5319 6.44824 20.2412 7.15332 20.1299 8.0625H25.1582V7.93262C25.1087 7.06055 24.8737 6.38639 24.4531 5.91016C24.0326 5.42773 23.4635 5.18652 22.7461 5.18652ZM31.1978 1.53125V3.96191H33.0718V5.28857H31.1978V11.5137C31.1978 11.9157 31.2812 12.2188 31.4482 12.4229C31.6152 12.6208 31.8997 12.7197 32.3018 12.7197C32.4997 12.7197 32.7718 12.6826 33.1182 12.6084V14C32.6667 14.1237 32.2275 14.1855 31.8008 14.1855C31.0339 14.1855 30.4556 13.9536 30.0659 13.4897C29.6763 13.0259 29.4814 12.3672 29.4814 11.5137V5.28857H27.6538V3.96191H29.4814V1.53125H31.1978ZM5.21875 31.0078L8.46875 21.625H10.1094L5.89062 33H4.5625L0.351562 21.625H1.98438L5.21875 31.0078ZM16.2734 33C16.1901 32.8333 16.1224 32.5365 16.0703 32.1094C15.3984 32.8073 14.5964 33.1562 13.6641 33.1562C12.8307 33.1562 12.1458 32.9219 11.6094 32.4531C11.0781 31.9792 10.8125 31.3802 10.8125 30.6562C10.8125 29.776 11.1458 29.0938 11.8125 28.6094C12.4844 28.1198 13.4271 27.875 14.6406 27.875H16.0469V27.2109C16.0469 26.7057 15.8958 26.3047 15.5938 26.0078C15.2917 25.7057 14.8464 25.5547 14.2578 25.5547C13.7422 25.5547 13.3099 25.6849 12.9609 25.9453C12.612 26.2057 12.4375 26.5208 12.4375 26.8906H10.9844C10.9844 26.4688 11.1328 26.0625 11.4297 25.6719C11.7318 25.276 12.138 24.9635 12.6484 24.7344C13.1641 24.5052 13.7292 24.3906 14.3438 24.3906C15.3177 24.3906 16.0807 24.6354 16.6328 25.125C17.1849 25.6094 17.4714 26.2786 17.4922 27.1328V31.0234C17.4922 31.7995 17.5911 32.4167 17.7891 32.875V33H16.2734ZM13.875 31.8984C14.3281 31.8984 14.7578 31.7812 15.1641 31.5469C15.5703 31.3125 15.8646 31.0078 16.0469 30.6328V28.8984H14.9141C13.1432 28.8984 12.2578 29.4167 12.2578 30.4531C12.2578 30.9062 12.4089 31.2604 12.7109 31.5156C13.013 31.7708 13.401 31.8984 13.875 31.8984ZM21.3281 33H19.8828V21H21.3281V33ZM28.8672 32.1641C28.3047 32.8255 27.4792 33.1562 26.3906 33.1562C25.4896 33.1562 24.8021 32.8958 24.3281 32.375C23.8594 31.849 23.6224 31.0729 23.6172 30.0469V24.5469H25.0625V30.0078C25.0625 31.2891 25.5833 31.9297 26.625 31.9297C27.7292 31.9297 28.4635 31.5182 28.8281 30.6953V24.5469H30.2734V33H28.8984L28.8672 32.1641ZM35.9844 33.1562C34.8385 33.1562 33.9062 32.7812 33.1875 32.0312C32.4688 31.276 32.1094 30.2682 32.1094 29.0078V28.7422C32.1094 27.9036 32.2682 27.1562 32.5859 26.5C32.9089 25.8385 33.3568 25.3229 33.9297 24.9531C34.5078 24.5781 35.1328 24.3906 35.8047 24.3906C36.9036 24.3906 37.7578 24.7526 38.3672 25.4766C38.9766 26.2005 39.2812 27.237 39.2812 28.5859V29.1875H33.5547C33.5755 30.0208 33.8177 30.6953 34.2812 31.2109C34.75 31.7214 35.3438 31.9766 36.0625 31.9766C36.5729 31.9766 37.0052 31.8724 37.3594 31.6641C37.7135 31.4557 38.0234 31.1797 38.2891 30.8359L39.1719 31.5234C38.4635 32.612 37.401 33.1562 35.9844 33.1562ZM35.8047 25.5781C35.2214 25.5781 34.7318 25.7917 34.3359 26.2188C33.9401 26.6406 33.6953 27.2344 33.6016 28H37.8359V27.8906C37.7943 27.1562 37.5964 26.5885 37.2422 26.1875C36.888 25.7812 36.4089 25.5781 35.8047 25.5781Z" fill="black"/>
</svg>
